<svg xmlns="http://www.w3.org/2000/svg" viewBox="0 0 2000 2000" role="img" aria-label="Rebar bot"><rect width="2000" height="2000" rx="300" fill="#101820"/><g fill="#fafafa"><path d="M992.5 217.7c-3.3.2-6.4.8-6.9 1.4-.6.5-1.7.9-2.6.9-2.8 0-15.2 6.8-19.2 10.5-2.1 1.9-4.1 3.5-4.4 3.5-2.2 0-13.4 17.5-13.4 21 0 1-.4 2.2-1 2.5-.5.3-1 2.1-1 4s-.4 3.7-1 4c-2 1.2-.6 21 1.9 27 3.5 8.4 8 16.1 11.8 20.5 4.6 5.2 15.5 14 17.3 14 .6 0 1 17 1 48v48l-120.7.4c-81.2.2-123.1.7-127.8 1.5-3.8.6-9.2 1.3-12 1.7-2.7.3-5.4 1-5.9 1.5-.6.5-2.2.9-3.7.9s-3.1.4-3.4 1c-.3.5-1.7 1-3 1s-3.7.5-5.2 1.1-3.7 1.5-4.8 1.9c-4.4 1.6-7.4 3-16 7.1-4.9 2.4-9.2 4.6-9.5 4.9s-1.5 1.1-2.7 1.7c-4.7 2.7-6.7 3.8-7.7 4.6-8.2 5.9-15.8 11.7-18.6 14.2-6.9 5.9-22 21.9-22 23.3-.1.4-2.3 3.6-5 7.2-2.8 3.6-5 7-5 7.7 0 .6-.3 1.3-.8 1.5-1.4.6-11.1 21.3-13.7 29.3-4.2 13-4.5 14-4.5 17.1 0 1.7-.4 3.4-.9 3.9-.5.6-1.2 4.1-1.4 7.8s-.7 7.1-1.1 7.4c-1.1 1.1-.7 232.1.4 232.8.6.3 1 3.3 1 6.5s.5 6.2 1 6.5c.6.3 1 1.7 1 3.1 0 3.1 2.8 15.3 4.1 17.6.5 1 .9 2.2.9 2.8 0 2.8 11.4 25.5 16.1 32.2 1.1 1.4 1.9 2.9 1.9 3.3 0 .3 1.3 2 3 3.8 1.6 1.8 3 3.6 3 4s1.1 1.9 2.5 3.3 3.3 3.7 4.3 5.2c2.2 3.5 13.6 14.2 20.9 19.8 3.2 2.4 6.3 4.8 6.9 5.3.5.4 2.1 1.4 3.5 2.1 1.3.7 2.6 1.6 2.9 1.9s1.5 1.2 2.8 1.8c1.2.7 3.2 1.9 4.5 2.5 1.2.7 2.4 1.5 2.7 1.8.6.6 13.3 6.8 17 8.2 1.4.6 3.3 1.4 4.2 1.9 1 .5 2.6.9 3.6.9s2.2.4 2.7.8c1 .9 5.6 2.3 13.5 4.1 8.2 2 10.4 2.3 17.5 2.8 3.9.2 7.9.8 9 1.4 2.9 1.4 538.5.5 549-.9 15.9-2.2 17.6-2.5 18.1-3.3.3-.5 1.8-.9 3.5-.9 1.6 0 3.8-.5 4.9-1 1.1-.6 2.9-1.5 4-2 1.1-.6 2.9-1 4-1s2-.5 2-1c0-.6 1.1-1 2.4-1s4.1-.8 6.3-1.9c2.1-1 6.1-2.9 8.8-4.2 2.8-1.3 5.2-2.6 5.5-3 .3-.3 2.5-1.6 5-3 2.5-1.3 5.1-3 5.8-3.7.7-.6 1.7-1.2 2.1-1.2s1.9-1 3.2-2.1c1.3-1.2 3.5-2.9 4.9-3.8 7.7-5 32-29.9 32-32.7 0-.7.4-1.4.8-1.6 1.8-.7 7.9-10.7 15.5-25.3 2.7-5.2 5.7-12.4 5.7-13.8 0-.7.4-1.7.9-2.3.9-.9 5.2-17.8 4.9-19.1 0-.5.1-1.5.5-2.3 2.3-6.1 2.7-24 2.7-128.1 0-107.1-.5-127.2-3.1-132.1-.5-1-.9-3.6-.9-5.7 0-2.2-.4-4.2-.9-4.5s-1.2-2.6-1.5-5c-.4-2.4-1.6-6.2-2.6-8.5-1.1-2.2-2-4.4-2-4.9 0-3.3-15.4-30.4-20.2-35.6-1-1.1-1.8-2.4-1.8-2.9s-.8-1.7-1.8-2.6-2.5-2.6-3.3-3.7c-3.2-4.7-11.9-13.3-19.9-19.7-13.6-10.8-17.9-13.8-27.4-18.7-3.9-2-8-4.1-9.1-4.7s-3.3-1.6-5-2.3c-1.6-.7-3.8-1.6-4.7-2.1-1-.5-2.5-.9-3.3-.9s-2.4-.5-3.5-1c-1.1-.6-2.9-1.5-4-2-1.1-.6-2.9-1-3.9-1-1.1 0-2.3-.5-2.6-1-.3-.6-2.2-1-4.1-1s-3.4-.4-3.4-.9c0-.4-2.6-1.2-5.7-1.6-3.2-.4-8.5-1.2-11.8-1.7-3.8-.7-50.7-1.2-129-1.5l-123-.4.5-47.9.5-47.9 5-3.2c5.8-3.7 17.5-15.2 17.5-17.3 0-.8.3-1.6.8-1.8 1.1-.5 5.2-8.8 5.2-10.7 0-.9.4-2.1 1-2.7.5-.5 1.1-3 1.3-5.6.1-2.6.6-5 1-5.4.9-.9.9-9.8.1-10.7-.4-.4-.8-2.6-1-4.9-.2-2.4-.9-5.4-1.5-6.8-.7-1.4-1.5-3.4-1.9-4.5-1-2.8-2.8-6.6-4.5-9.4-1.9-3.4-14.6-16.1-16.1-16.1-.6 0-1.7-.7-2.4-1.5-1.6-1.9-6.8-4.5-9.1-4.5-1 0-2.1-.5-2.4-1-.3-.6-1.6-1-2.9-1-1.2 0-2.6-.4-3.1-.9-1.3-1.1-12.1-1.8-20-1.4m210 332.2c.6.5 3.3 1.2 6 1.5 11.4 1.3 14.5 1.8 14.5 2.7 0 .5.9.9 2 .9s2.8.4 3.8.9c.9.5 3.1 1.4 4.7 2.1 1.7.7 3.8 1.6 4.7 2.1 1 .5 2.5.9 3.3.9s1.5.4 1.5 1c0 .5.9 1 2 1s2 .3 2 .8c0 .4 1.2 1.3 2.8 1.9 5.5 2.5 19.9 13.5 27.5 21 4.2 4.2 7.7 8 7.7 8.4s1.5 2.3 3.3 4.3c1.7 1.9 3.7 4.1 4.2 4.8 3.1 4.2 10.5 18.7 10.5 20.5 0 .7.5 1.3 1 1.3.6 0 1 .9 1 2s.5 2.9 1 4c.6 1.1 1.5 2.9 2 4 .6 1.1 1 3.1 1 4.4 0 1.4.4 2.7.9 3 1.8 1.1 2.5 13 2.5 39.6s-.7 38.5-2.5 39.6c-.5.3-.9 1.8-.9 3.4s-.4 3.2-1 3.5c-.5.3-1 1.7-1 3.1 0 1.3-.4 2.4-1 2.4-.5 0-1 .7-1 1.5s-.4 2.3-.8 3.3c-.5.9-1.9 3.9-3.2 6.7-2 4.4-10.5 18.1-12 19.5-.3.3-2.1 2.5-4 5-5.5 7-12.9 14.1-20.4 19.5-1.6 1.1-4 2.9-5.5 4-1.4 1.2-4.7 3.2-7.3 4.5-2.7 1.4-4.8 2.8-4.8 3.2 0 .5-.9.8-2 .8s-2 .4-2 1c0 .5-.7 1-1.5 1s-2.3.4-3.3.9c-.9.5-3 1.4-4.7 2.1-1.6.7-3.8 1.6-4.7 2.1-1 .5-2.7.9-3.7.9-1.1 0-2.3.4-2.6 1-.3.5-2.1 1-3.9 1-1.7 0-3.6.4-4.1.9-.6.5-3.5 1.2-6.5 1.6-8 1.1-407.1 1.7-408.4.6-.6-.4-3.3-.9-6.1-1-2.7-.1-5.4-.6-5.9-1.1-.6-.6-2.2-1-3.7-1s-3.1-.5-3.4-1c-.3-.6-1.7-1-3-1s-2.7-.5-3-1c-.3-.6-1.5-1-2.6-1-1 0-2.7-.4-3.7-.9-.9-.5-4.2-2.1-7.2-3.5-8.6-4.1-20.1-11-23.6-14.1-.6-.6-3.3-2.9-6-5.1-7.4-6.4-8.7-7.6-11.7-11.7-1.6-2-3.9-4.8-5.3-6.2-1.3-1.3-2.4-2.8-2.4-3.3s-.8-1.6-1.9-2.6c-1-.9-4.4-6.9-7.6-13.4-3.2-6.4-6.2-12.5-6.6-13.4-.5-1-.9-2.9-.9-4.2 0-1.4-.4-2.8-1-3.1-.5-.3-1-1.6-1-2.9 0-1.2-.4-2.6-1-3.2-.5-.5-1-2.7-1.1-4.9s-.6-4.5-1.1-5.1c-1-1.3-.5-53.3.5-60.3.7-4.6 2.4-10.4 3.8-13.3.5-1 .9-2.9.9-4.2 0-1.4.5-2.8 1-3.1.6-.3 1-1.5 1-2.6 0-1 .5-1.9 1-1.9.6 0 1-.6 1-1.4 0-3 11-21.9 14.9-25.6.9-.8 4.1-4.4 7.1-7.9s7.8-8.2 10.8-10.5c8.8-6.8 18.6-13.5 19.9-13.5.6-.1 1.3-.4 1.5-.9.3-.7 7.7-4.4 12.8-6.4 1.4-.6 3.3-1.4 4.2-1.9 1-.5 2.5-.9 3.3-.9s1.5-.5 1.5-1c0-.6 1.5-1 3.4-1s3.7-.4 4-.8c.3-.5 4.5-1.5 9.3-2.2s9.5-1.7 10.3-2.1c2.1-1.2 399.4-1.1 400.5 0"/><path d="M830.5 615.7c-2.2.2-4.7.6-5.5 1-.8.3-2.6.7-4 .9-2.3.3-4.7 1.2-9.2 3.5-1 .5-2.5.9-3.3.9s-1.5.4-1.5 1c0 .5-.9 1-2 1s-2 .4-2 1c0 .5-.6 1-1.3 1-.8 0-2.2.9-3.2 2s-2.4 2-3.1 2-3.4 2.5-6.1 5.6c-2.6 3.1-5.8 6.7-7 8-1.3 1.3-2.3 3-2.3 3.9 0 .8-.3 1.5-.8 1.5-1.4 0-7.2 14.1-7.2 17.7 0 1.2-.5 2.5-1 2.8-1.3.8-1.1 28.5.1 28.5.5 0 .9.9.9 1.9 0 1.1.5 2.3 1 2.6.6.3 1 1.5 1 2.6 0 2 .6 3.4 3.4 8.4 1 1.6 2 3.8 2.3 4.7.3 1 .9 1.8 1.4 1.8s.9.6.9 1.4c0 2.2 13.8 15.7 20.5 20.1 8.9 5.9 18.6 8.6 32.8 9.2 13.4.6 22-.9 32.2-5.7 5.7-2.7 20.5-13.4 20.5-14.8 0-.4 1.4-2.1 3-3.9 1.7-1.8 3-3.6 3-4.1 0-.4.8-1.7 1.8-2.8 2.1-2.4 5.7-9.6 7.3-14.9.6-2.2 1.5-4.8 2-5.7 1.3-2.5 1.1-30.5-.1-31.3-.5-.3-1-1.9-1-3.6 0-1.6-.4-2.9-1-2.9-.5 0-1-.9-1-1.9 0-1.1-.4-2.3-1-2.6-.5-.3-1-1.4-1-2.3s-1.8-4.1-4-7-4-5.6-4-6c0-1-8.8-9.4-12.4-11.8-1.6-1-4.1-2.7-5.5-3.6-1.4-1-3.3-2.1-4.1-2.4-.8-.4-3.9-1.8-6.8-3-2.9-1.3-6.3-2.4-7.5-2.4-1.3 0-2.7-.4-3.2-.9-1.2-1-16.1-2-22-1.4m323.8 0c-2.9.2-5.3.8-5.3 1.4 0 .5-1 .9-2.2.9-4.5 0-16.3 5-22.1 9.4-14.1 10.5-23.1 23.7-27.6 40.4-1.5 5.3-1.5 26.5-.1 29.2.5 1 1 2.8 1 3.9 0 1.2.5 3 1 4.1.6 1.1 1.5 2.9 2 4 .6 1.1 1 2.7 1 3.5s.5 1.5 1 1.5c.6 0 1 .9 1 2s.4 2 .8 2c.5 0 1.5 1.2 2.3 2.7.8 1.6 2.6 4 4.1 5.5 1.6 1.4 2.8 3.1 2.8 3.7 0 .5 1.7 2.2 3.8 3.8 2 1.5 5.1 3.9 6.8 5.3 15 12.8 46.5 15.8 66.9 6.5 4.9-2.2 16.1-10 20-14 3.4-3.4 10.5-13.1 10.5-14.3 0-.7.3-1.2.8-1.2 1 0 3.2-5 3.2-7.2 0-1 .5-1.8 1-1.8.6 0 1-.9 1-1.9 0-1.1.5-2.3 1-2.6.6-.3 1-3 1-6s.5-5.7 1-6c.6-.3 1-3.7 1-7.5s-.4-7.2-1-7.5c-.5-.3-1-2.4-1-4.5s-.4-4.2-1-4.5c-.5-.3-1-1.9-1-3.5s-.4-3.2-1-3.5c-.5-.3-1-1.5-1-2.6 0-1-.4-1.9-1-1.9-.5 0-1-.9-1-1.9 0-1.1-.3-2.1-.7-2.3-.5-.2-1.5-1.6-2.4-3.2-2.4-4.2-10.9-13.9-14.7-16.7-1.8-1.3-3.9-2.9-4.6-3.5-2.3-2.1-11.3-6.3-18.8-8.8s-19-3.6-28.5-2.9m-378.8 395.2c-.6.5-4.6 1.2-9 1.4-12 .7-20.9 1.8-22 2.6-.5.4-2.6.8-4.5 1-1.9.1-3.9.7-4.4 1.2-.6.5-2.9.9-5.2.9-2.4 0-4.6.4-4.9 1-.3.5-1.9 1-3.6 1-1.6 0-2.9.4-2.9 1 0 .5-1.3 1-2.9 1-1.7 0-3.3.4-3.6 1-.3.5-1.9 1-3.6 1-1.6 0-2.9.4-2.9 1 0 .5-.9 1-1.9 1-1.1 0-2.3.4-2.6 1-.3.5-1.7 1-3.1 1-1.3 0-2.4.4-2.4 1 0 .5-.7 1-1.5 1s-2.3.4-3.3.9c-.9.5-5.7 2.8-10.7 5.2-4.9 2.4-12 6.2-15.7 8.6s-6.9 4.3-7.2 4.3c-.9 0-16.1 11.2-19.8 14.6-2 1.9-4.1 3.4-4.6 3.4-1 0-18.1 17.7-23 23.9-13.4 16.7-18.1 24.2-27.7 44.1-3.1 6.3-6 12.3-6.5 13.2-.6 1-1 2.6-1 3.6s-.4 2.2-.8 2.7c-.8.9-1.4 2.9-4.5 13.5-.5 1.9-1.3 4.4-1.8 5.5-1 2.7-1.9 7.8-2.6 14.5-.2 3-.9 5.9-1.4 6.4-.5.6-.9 4.9-.9 9.7s-.4 9.1-1 9.4c-.7.4-1 68.2-1 200s.3 199.6 1 200c.6.3 1 2.4 1 4.5s.5 4.2 1 4.5c.6.3 1 1.7 1 3s.5 2.7 1 3c.6.3 1 1.5 1 2.6 0 1 .4 1.9.9 1.9s1.1.8 1.4 1.7c2.2 6.9 19.4 24.4 28.3 28.7 3.2 1.5 6.7 3.2 7.6 3.7 1 .5 2.4.9 3.2.9s1.6.4 1.8 1c.2.5 2.4 1.1 5 1.3 2.6.1 5 .6 5.4 1 1 .9 19.8.9 20.8 0 .4-.4 2.4-.9 4.4-1s3.8-.7 4-1.3c.2-.5 1.7-1 3.3-1s2.9-.5 2.9-1c0-.6.7-1 1.7-1 .9 0 4.5-1.6 7.9-3.5 6.7-3.8 23.4-19.5 23.4-22 0-.8.4-1.5.9-1.5s1.1-.8 1.4-1.8c.3-.9 1.3-3.1 2.3-4.7 2.8-4.9 3.4-6.4 3.4-8.3 0-1 .4-2.2.9-2.7.5-.6 1.1-3.3 1.4-6 .2-2.8.7-5.7 1-6.5.4-.8.8-87.7 1-193 .2-146.8.6-192.4 1.5-195.3 1.2-3.7 3-10.2 3.5-12.3.6-2.5 8.1-17 9.9-18.8 1-1.1 1.8-2.4 1.8-2.9 0-1.2 18.4-19.7 19.5-19.7.5 0 1.8-.8 2.9-1.9 1.2-1 4.6-3.1 7.6-4.6s6.3-3.1 7.2-3.6c1-.5 2.7-.9 3.7-.9 1.1 0 2.3-.5 2.6-1 .3-.6 1.9-1 3.5-1s3.2-.5 3.5-1c.3-.6 3-1 6-1s5.7-.5 6-1c.4-.7 66.3-1 194.5-1s194.1.3 194.5 1c.3.5 3.7 1 7.5 1s7.2.4 7.5 1c.3.5 1.7 1 3 1s2.7.4 3 1c.3.5 1.3 1 2.1 1 2 0 15.1 6.5 19.9 10 4.5 3.2 14.5 13.4 14.5 14.8 0 .5.9 1.7 2 2.7s2 2.6 2 3.6c0 .9.3 1.9.8 2.1 1.1.5 5.2 8.8 5.2 10.7 0 .9.4 2.1.8 2.7.5.5 1.5 4.1 2.2 7.9 1.6 9.3.2 31.6-2.1 33.1-.5.3-.9 1.6-.9 3 0 1.3-.4 2.4-1 2.4-.5 0-1 .8-1 1.7 0 1-.9 2.9-2 4.3s-2 2.8-2 3.2-2 3.5-4.5 6.7c-8.3 10.8-22 19.3-38 23.4-2.5.6-45.2 1.2-117 1.6-70.7.4-113.6 1-114.5 1.6-.8.5-3.1 1-5 1.2-1.9.1-5.3.7-7.5 1.3-2.2.7-5.8 1.6-8 2.2s-4.9 1.4-6 1.8-4 1.3-6.5 2c-2.5.6-5.3 1.6-6.2 2.1-1 .5-2.5.9-3.3.9s-1.5.4-1.5 1c0 .5-.6 1-1.4 1-1.2 0-8.1 3.4-21.6 10.7-9.4 5.1-28.7 20.5-36.5 29.1q-11.4 12.75-13.8 16.2c-.9 1.4-3 4.4-4.6 6.7s-4.1 6.1-5.4 8.5-3.4 6-4.6 8.1c-1.1 2.1-2.1 4.4-2.1 5.2s-.3 1.5-.8 1.5c-.4 0-1.3 1.5-2 3.2-.8 1.8-1.8 4.3-2.3 5.5-.5 1.3-1.3 3.3-1.8 4.5-.5 1.3-1.5 4.1-2.2 6.3-.6 2.2-1.5 4.8-2 5.7-.5 1-.9 2.9-.9 4.2 0 1.4-.4 2.8-1 3.1-.5.3-1 2.3-1 4.4 0 2-.4 4.1-.9 4.6-.6.6-1.2 3.9-1.4 7.5-.3 3.6-.8 7.2-1.1 8.1-1.1 2.5 0 44.4 1.3 51.4.6 3.3 1.5 8 2.2 10.5.6 2.5 1.3 6.2 1.6 8.3.3 2 .9 4 1.4 4.3s.9 1.6.9 2.9.5 2.7 1 3c.6.3 1 1.5 1 2.6 0 1 .4 2.7.9 3.7.5.9 1.3 2.8 1.9 4.2 2.1 5.4 11.7 24.5 12.4 24.8.5.2.8.8.8 1.3 0 2.1 11.2 18 20 28.4 2.6 3.1 13.7 13.8 18 17.3 4.5 3.8 12.5 10.2 13.5 11 7.6 5.4 10.5 7.2 11.4 7.2.6 0 1.1.4 1.1.8 0 .5 2.1 2 4.8 3.3 2.6 1.3 4.9 2.7 5 3.1.2.5 1.2.8 2.3.8 1 0 1.9.4 1.9 1 0 .5.9 1 2 1s2 .4 2 1c0 .5.9 1 2 1s2 .4 2 1c0 .5.7 1 1.5 1s2.3.4 3.3.9c1.8.9 5.8 2.6 10.2 4.4 1.4.5 3.3 1.3 4.2 1.8 1 .5 3.1.9 4.7.9 1.7 0 3.3.5 3.6 1 .3.6 1.7 1 3.1 1 1.3 0 3.2.4 4.2.9.9.6 5.5 1.7 10.2 2.6 23.1 4.5 21.3 4.5 224.2 4.5 127.4 0 192.9-.3 193.3-1 .3-.6 2.6-1 5-1s4.7-.4 5-1c.3-.5 1.5-1 2.6-1 1 0 2.7-.4 3.7-.9.9-.5 3.1-1.5 4.7-2.2 5.4-2.4 14.8-9.2 20-14.3 7.7-7.8 9.7-10.5 13.4-18.1 1.8-3.9 3.7-7.8 4.2-8.7.5-1 .9-2.9.9-4.2 0-1.4.5-2.8 1-3.1.6-.4 1-6.3 1-14.5s-.4-14.1-1-14.5c-.5-.3-1-1.7-1-3.1 0-2.3-.3-3.3-2.8-8.1-.7-1.3-1.2-2.8-1.2-3.4s-1.3-3-3-5.4c-1.6-2.4-3-4.7-3-5.2s-3.5-4.3-7.7-8.4c-7.8-7.5-17.9-14.9-20.5-14.9-.8 0-1.8-.4-2.3-.8-.6-.5-3-1.4-5.5-2.1s-5.5-1.7-6.8-2.2-84.7-.9-197.2-.9c-128.8 0-195.1-.3-195.5-1-.3-.6-3.1-1-6.2-1-5.4 0-9.8-1-15.3-3.4-4.1-1.7-13.3-8.2-16.1-11.2-3.3-3.7-8.9-13.9-8.9-16.4 0-1-.4-2.2-1-2.5-.6-.4-1-5.3-1-11.5s.4-11.1 1-11.5c.6-.3 1-1.6 1-2.9 0-5.9 13-23.6 17.3-23.6.9 0 1.7-.4 1.7-.8 0-1.1 6.5-4.2 11.5-5.5 2.6-.7 39.1-1.2 108-1.4 66.9-.2 104.3-.7 104.9-1.3s4.5-1 8.7-1c4.3 0 8-.4 8.3-.9s3.2-1.1 6.3-1.5c11-1.2 14.8-1.8 15.8-2.7.5-.5 1.8-.9 2.9-.9 1.8 0 5.4-1 11.1-3 1.1-.4 6.1-2 11-3.6 8.1-2.6 14-5.1 24.5-10.4 10.5-5.4 12.7-6.7 14.4-8.3 1.1-.9 2.6-1.7 3.3-1.7s1.3-.4 1.3-.8 1.3-1.6 3-2.5c1.6-1 3.5-2.3 4.2-3s2.9-2.4 4.8-3.7c4.9-3.5 8.7-6.8 14-12.3 2.5-2.6 5-4.7 5.6-4.7.5 0 1.9-1.5 3.1-3.3s4.5-5.7 7.3-8.7c2.7-3 5-5.8 5-6.3 0-.4 1.4-2.1 3-3.9 1.7-1.7 3-3.7 3-4.4 0-.8.5-1.4 1-1.4.6 0 1-.6 1-1.3.1-.6 1.4-2.8 3-4.7 1.7-1.9 3-4 3-4.7s.3-1.3.8-1.3c.4 0 1.2-1 1.8-2.3.6-1.2 3.1-6.3 5.6-11.2 5.6-11.2 7.5-15.3 8.3-18.5.3-1.4 1-3.4 1.4-4.5.5-1.1 1.5-4 2.2-6.5s1.6-5 1.9-5.5c.4-.6 1-2.8 1.3-5 .4-2.2 1.1-6.3 1.7-9 3.5-16.3 5.6-58.4 3-60-.5-.3-1-3.7-1-7.5s-.4-7.2-1-7.5c-.5-.3-1-1.8-1-3.2 0-1.5-.4-4-.9-5.7s-1.4-4.9-2-7.1c-2.3-8.6-5.4-18-6.2-18.9-.5-.6-.9-1.7-.9-2.6s-1.2-4.1-2.6-7.1c-1.4-2.9-3.5-7.4-4.7-9.9s-3.3-6.3-4.7-8.5-3.2-5.4-4-7c-.8-1.7-2.3-3.9-3.2-4.9-1-1.1-1.8-2.5-1.8-3.1s-.9-1.7-2-2.5-2-1.9-2-2.5c0-1-1.1-2.4-13.8-17.1-8.4-9.6-31.8-30.9-35.6-32.3-.6-.2-1.8-1.2-2.7-2.3-.9-1-1.9-1.8-2.3-1.8-.3 0-2.4-1.2-4.6-2.6-7.3-4.8-37.6-20.4-39.7-20.4-.7 0-2.1-.4-3.1-.9-.9-.5-3-1.4-4.7-2.1-1.6-.7-3.8-1.6-4.7-2.1-1-.5-2.9-.9-4.2-.9-1.4 0-2.8-.5-3.1-1-.3-.6-1.7-1-3-1s-2.7-.5-3-1c-.3-.6-1.9-1-3.5-1s-3.2-.5-3.5-1c-.3-.6-2.4-1-4.5-1s-4.2-.5-4.5-1c-.3-.6-2.5-1-4.9-1-2.3 0-4.6-.4-5.1-.9-1.2-1.1-9.1-2-23.2-2.7-5.7-.3-10.3-.9-10.3-1.5 0-1.2-388.3-1.2-389.5 0"/></g></svg>